<!-- icon666.com - MILLIONS OF FREE VECTOR ICONS --><svg version="1.1" id="Capa_1" xmlns="http://www.w3.org/2000/svg" xmlns:xlink="http://www.w3.org/1999/xlink" x="0px" y="0px" viewBox="0 0 489 489" style="enable-background:new 0 0 489 489;" xml:space="preserve"><g><path d="M244.5,0C109.3,0,0,109.3,0,244.5C0,379.8,109.3,489,244.5,489S489,379.8,489,244.5C489,109.3,379.7,0,244.5,0z M447.4,223.7h-66c-2.9-64.1-19.2-120.5-43.9-160.6C397.4,94,440.2,153.7,447.4,223.7z M223.7,46.1v177.6h-75.4 C152.8,131.8,187.2,65.1,223.7,46.1z M223.7,265.3v177.6c-36.4-19-70.9-85.7-75.4-177.6H223.7z M265.3,442.9V265.3h75.4 C336.2,357.2,301.8,423.9,265.3,442.9z M265.3,223.7V46.1c36.4,19,70.9,85.7,75.4,177.6L265.3,223.7L265.3,223.7z M151.5,63.1 c-24.7,40.1-40.9,96.4-43.8,160.6h-66C48.8,153.7,91.6,94,151.5,63.1z M41.6,265.3h66c2.9,64.2,19.1,120.5,43.9,160.6 C91.6,395,48.8,335.4,41.6,265.3z M337.5,425.9c24.7-40.1,41-96.4,43.9-160.6h66C440.2,335.4,397.4,395,337.5,425.9z" fill="#000000" style="fill: rgb(255, 255, 255);"></path></g></svg>