<svg width="128" height="148" viewBox="0 0 128 148" fill="none" xmlns="http://www.w3.org/2000/svg">
    <path d="M101.816 0H26.153V13.3968H0.266602V33.2652C0.266602 47.539 11.8792 59.1516 26.153 59.1516H26.6066C28.9957 74.6653 40.8199 87.0339 56.001 90.3V111.741H46.7169C43.844 111.741 41.5457 114.069 41.5457 116.912V123.716H33.6225V148H94.3769V123.716H86.4538V116.912C86.4538 114.039 84.1252 111.741 81.2825 111.741H71.9985V90.3C87.2098 87.0339 99.0038 74.6351 101.393 59.1516H101.846C116.12 59.1516 127.733 47.539 127.733 33.2652V13.3968H101.846V0H101.816ZM26.153 46.0572C19.1068 46.0572 13.361 40.3114 13.361 33.2652V26.4912H26.153V46.0572ZM81.1616 36.8034L73.3896 43.3658L75.8089 53.2546C76.2625 55.0993 74.2364 56.5811 72.6033 55.5832L63.9846 50.2002L55.3357 55.5529C53.7026 56.5509 51.6765 55.0993 52.1301 53.2244L54.5494 43.3355L46.8077 36.8034C45.3561 35.5635 46.1121 33.1745 48.0173 33.0535L58.1481 32.3277L62.0189 22.8925C62.7447 21.1083 65.2547 21.1083 65.9805 22.8925L69.8212 32.2975L79.9519 33.0233C81.8571 33.1745 82.6131 35.5635 81.1616 36.8034ZM114.578 26.4912V33.2652C114.578 40.3114 108.862 46.0572 101.816 46.0572V26.4912H114.578Z" fill="white"/>
</svg>
