<svg width="416" height="417" viewBox="0 0 416 417" fill="none" xmlns="http://www.w3.org/2000/svg">
    <rect x="92.5" y="90.5" width="235" height="235" rx="29.5" stroke="white" stroke-width="19"/>
    <rect x="136.5" y="132.5" width="150" height="150" rx="20.5" stroke="white" stroke-width="19"/>
    <line x1="135" y1="81" x2="135" y2="18" stroke="white" stroke-width="18"/>
    <line x1="285" y1="81" x2="285" y2="18" stroke="white" stroke-width="18"/>
    <line x1="210" y1="81" x2="210" y2="18" stroke="white" stroke-width="18"/>
    <circle cx="134" cy="20" r="20" fill="white"/>
    <circle cx="285" cy="20" r="20" fill="white"/>
    <circle cx="210" cy="20" r="20" fill="white"/>
    <line x1="285.232" y1="334.447" x2="285.055" y2="397.447" stroke="white" stroke-width="18"/>
    <line x1="135.233" y1="334.025" x2="135.056" y2="397.025" stroke="white" stroke-width="18"/>
    <line x1="210.232" y1="334.236" x2="210.055" y2="397.236" stroke="white" stroke-width="18"/>
    <circle cx="285.055" cy="396.45" r="20" transform="rotate(-179.839 285.055 396.45)" fill="white"/>
    <circle cx="134.056" cy="396.025" r="20" transform="rotate(-179.839 134.056 396.025)" fill="white"/>
    <circle cx="210.055" cy="396.236" r="20" transform="rotate(-179.839 210.055 396.236)" fill="white"/>
    <line x1="331.994" y1="133.052" x2="394.994" y2="133.012" stroke="white" stroke-width="18"/>
    <line x1="332.088" y1="283.051" x2="395.088" y2="283.011" stroke="white" stroke-width="18"/>
    <line x1="332.041" y1="208.052" x2="395.041" y2="208.012" stroke="white" stroke-width="18"/>
    <circle cx="394.994" cy="132.012" r="20" transform="rotate(89.9643 394.994 132.012)" fill="white"/>
    <circle cx="395.088" cy="283.012" r="20" transform="rotate(89.9643 395.088 283.012)" fill="white"/>
    <circle cx="395.042" cy="208.011" r="20" transform="rotate(89.9643 395.042 208.011)" fill="white"/>
    <line x1="83.0172" y1="282.065" x2="20.0172" y2="282.015" stroke="white" stroke-width="18"/>
    <line x1="83.1373" y1="132.066" x2="20.1373" y2="132.016" stroke="white" stroke-width="18"/>
    <line x1="83.0767" y1="207.065" x2="20.0767" y2="207.015" stroke="white" stroke-width="18"/>
    <circle cx="20.0161" cy="283.015" r="20" transform="rotate(-89.9538 20.0161 283.015)" fill="white"/>
    <circle cx="20.1382" cy="132.016" r="20" transform="rotate(-89.9538 20.1382 132.016)" fill="white"/>
    <circle cx="20.0767" cy="207.016" r="20" transform="rotate(-89.9538 20.0767 207.016)" fill="white"/>
    <path d="M213 174C208.306 174 204.5 177.806 204.5 182.5C204.5 187.194 208.306 191 213 191V174ZM277 174H213V191H277V174Z" fill="white"/>
    <path d="M231.995 222.5C227.3 222.5 223.495 226.306 223.495 231C223.495 235.694 227.3 239.5 231.995 239.5V222.5ZM277.006 222.5L231.995 222.5V239.5L277.006 239.5V222.5Z" fill="white"/>
</svg>
