<svg width="1388" height="755" viewBox="0 0 1388 755" fill="none" xmlns="http://www.w3.org/2000/svg">
    <path d="M273.283 141H166.525V159.902H130V187.936C130 208.076 146.385 224.461 166.525 224.461H167.165C170.536 246.35 187.219 263.802 208.639 268.41V298.663H195.54C191.486 298.663 188.243 301.948 188.243 305.959V315.56H177.064V349.823H262.787V315.56H251.607V305.959C251.607 301.906 248.322 298.663 244.311 298.663H231.211V268.41C252.674 263.802 269.315 246.308 272.686 224.461H273.326C293.466 224.461 309.851 208.076 309.851 187.936V159.902H273.326V141H273.283ZM166.525 205.985C156.583 205.985 148.476 197.878 148.476 187.936V178.378H166.525V205.985ZM291.29 178.378V187.936C291.29 197.878 283.225 205.985 273.283 205.985V178.378H291.29Z" fill="white"/>
    <rect x="1.5" y="76.5" width="437" height="437" rx="23.5" stroke="white" stroke-width="3"/>
    <path d="M104.779 429.747H95.975V433.652H111.808V439.9H95.975V447H86.248V439.9H80.923V433.652H86.248V429.747H80.923V421.156H86.248V397.3H104.779C109.465 397.3 113.417 398.909 116.636 402.128C119.902 405.347 121.535 409.228 121.535 413.772C121.535 418.316 119.926 422.126 116.707 425.203C113.536 428.232 109.56 429.747 104.779 429.747ZM104.779 406.459H95.975V421.156H104.779C106.767 421.156 108.424 420.446 109.749 419.026C111.122 417.606 111.808 415.855 111.808 413.772C111.808 411.689 111.122 409.962 109.749 408.589C108.424 407.169 106.767 406.459 104.779 406.459ZM161.337 447.994C155.136 447.994 150.261 445.651 146.711 440.965C143.208 436.184 141.457 429.913 141.457 422.15C141.457 414.387 143.208 408.139 146.711 403.406C150.261 398.673 155.136 396.306 161.337 396.306C167.632 396.306 172.507 398.673 175.963 403.406C179.465 408.139 181.217 414.387 181.217 422.15C181.217 429.913 179.465 436.184 175.963 440.965C172.507 445.651 167.632 447.994 161.337 447.994ZM171.49 422.15C171.49 416.849 170.614 412.802 168.863 410.009C167.159 407.216 164.65 405.82 161.337 405.82C158.023 405.82 155.515 407.216 153.811 410.009C152.107 412.802 151.255 416.849 151.255 422.15C151.255 427.451 152.107 431.498 153.811 434.291C155.515 437.036 158.023 438.409 161.337 438.409C164.65 438.409 167.159 437.013 168.863 434.22C170.614 431.427 171.49 427.404 171.49 422.15ZM205.348 447.994C199.148 447.994 194.272 445.651 190.722 440.965C187.22 436.184 185.468 429.913 185.468 422.15C185.468 414.387 187.22 408.139 190.722 403.406C194.272 398.673 199.148 396.306 205.348 396.306C211.644 396.306 216.519 398.673 219.974 403.406C223.477 408.139 225.228 414.387 225.228 422.15C225.228 429.913 223.477 436.184 219.974 440.965C216.519 445.651 211.644 447.994 205.348 447.994ZM215.501 422.15C215.501 416.849 214.626 412.802 212.874 410.009C211.17 407.216 208.662 405.82 205.348 405.82C202.035 405.82 199.526 407.216 197.822 410.009C196.118 412.802 195.266 416.849 195.266 422.15C195.266 427.451 196.118 431.498 197.822 434.291C199.526 437.036 202.035 438.409 205.348 438.409C208.662 438.409 211.17 437.013 212.874 434.22C214.626 431.427 215.501 427.404 215.501 422.15ZM249.36 447.994C243.159 447.994 238.284 445.651 234.734 440.965C231.231 436.184 229.48 429.913 229.48 422.15C229.48 414.387 231.231 408.139 234.734 403.406C238.284 398.673 243.159 396.306 249.36 396.306C255.655 396.306 260.531 398.673 263.986 403.406C267.489 408.139 269.24 414.387 269.24 422.15C269.24 429.913 267.489 436.184 263.986 440.965C260.531 445.651 255.655 447.994 249.36 447.994ZM259.513 422.15C259.513 416.849 258.637 412.802 256.886 410.009C255.182 407.216 252.673 405.82 249.36 405.82C246.047 405.82 243.538 407.216 241.834 410.009C240.13 412.802 239.278 416.849 239.278 422.15C239.278 427.451 240.13 431.498 241.834 434.291C243.538 437.036 246.047 438.409 249.36 438.409C252.673 438.409 255.182 437.013 256.886 434.22C258.637 431.427 259.513 427.404 259.513 422.15ZM293.372 447.994C287.171 447.994 282.296 445.651 278.746 440.965C275.243 436.184 273.492 429.913 273.492 422.15C273.492 414.387 275.243 408.139 278.746 403.406C282.296 398.673 287.171 396.306 293.372 396.306C299.667 396.306 304.542 398.673 307.998 403.406C311.5 408.139 313.252 414.387 313.252 422.15C313.252 429.913 311.5 436.184 307.998 440.965C304.542 445.651 299.667 447.994 293.372 447.994ZM303.525 422.15C303.525 416.849 302.649 412.802 300.898 410.009C299.194 407.216 296.685 405.82 293.372 405.82C290.058 405.82 287.55 407.216 285.846 410.009C284.142 412.802 283.29 416.849 283.29 422.15C283.29 427.451 284.142 431.498 285.846 434.291C287.55 437.036 290.058 438.409 293.372 438.409C296.685 438.409 299.194 437.013 300.898 434.22C302.649 431.427 303.525 427.404 303.525 422.15ZM337.383 447.994C331.183 447.994 326.307 445.651 322.757 440.965C319.255 436.184 317.503 429.913 317.503 422.15C317.503 414.387 319.255 408.139 322.757 403.406C326.307 398.673 331.183 396.306 337.383 396.306C343.679 396.306 348.554 398.673 352.009 403.406C355.512 408.139 357.263 414.387 357.263 422.15C357.263 429.913 355.512 436.184 352.009 440.965C348.554 445.651 343.679 447.994 337.383 447.994ZM347.536 422.15C347.536 416.849 346.661 412.802 344.909 410.009C343.205 407.216 340.697 405.82 337.383 405.82C334.07 405.82 331.561 407.216 329.857 410.009C328.153 412.802 327.301 416.849 327.301 422.15C327.301 427.451 328.153 431.498 329.857 434.291C331.561 437.036 334.07 438.409 337.383 438.409C340.697 438.409 343.205 437.013 344.909 434.22C346.661 431.427 347.536 427.404 347.536 422.15Z" fill="white"/>
    <rect x="516.5" y="382.5" width="371" height="371" rx="19.75" stroke="white" stroke-width="3"/>
    <path d="M604.062 681.985H596.579V685.304H610.037V690.615H596.579V696.65H588.311V690.615H583.785V685.304H588.311V681.985H583.785V674.683H588.311V654.405H604.062C608.045 654.405 611.405 655.773 614.141 658.509C616.917 661.245 618.305 664.544 618.305 668.406C618.305 672.269 616.937 675.507 614.201 678.122C611.505 680.697 608.126 681.985 604.062 681.985ZM604.062 662.19H596.579V674.683H604.062C605.752 674.683 607.16 674.079 608.287 672.872C609.453 671.665 610.037 670.176 610.037 668.406C610.037 666.636 609.453 665.167 608.287 664.001C607.16 662.794 605.752 662.19 604.062 662.19ZM652.136 697.495C646.866 697.495 642.722 695.503 639.704 691.52C636.727 687.457 635.238 682.126 635.238 675.527C635.238 668.929 636.727 663.618 639.704 659.595C642.722 655.572 646.866 653.56 652.136 653.56C657.487 653.56 661.631 655.572 664.568 659.595C667.545 663.618 669.034 668.929 669.034 675.527C669.034 682.126 667.545 687.457 664.568 691.52C661.631 695.503 657.487 697.495 652.136 697.495ZM660.766 675.527C660.766 671.021 660.022 667.581 658.533 665.208C657.085 662.834 654.952 661.647 652.136 661.647C649.32 661.647 647.187 662.834 645.739 665.208C644.291 667.581 643.566 671.021 643.566 675.527C643.566 680.034 644.291 683.473 645.739 685.847C647.187 688.181 649.32 689.348 652.136 689.348C654.952 689.348 657.085 688.161 658.533 685.787C660.022 683.413 660.766 679.993 660.766 675.527ZM689.546 697.495C684.275 697.495 680.131 695.503 677.114 691.52C674.137 687.457 672.648 682.126 672.648 675.527C672.648 668.929 674.137 663.618 677.114 659.595C680.131 655.572 684.275 653.56 689.546 653.56C694.897 653.56 699.041 655.572 701.978 659.595C704.955 663.618 706.444 668.929 706.444 675.527C706.444 682.126 704.955 687.457 701.978 691.52C699.041 695.503 694.897 697.495 689.546 697.495ZM698.176 675.527C698.176 671.021 697.432 667.581 695.943 665.208C694.495 662.834 692.362 661.647 689.546 661.647C686.73 661.647 684.597 662.834 683.149 665.208C681.701 667.581 680.976 671.021 680.976 675.527C680.976 680.034 681.701 683.473 683.149 685.847C684.597 688.181 686.73 689.348 689.546 689.348C692.362 689.348 694.495 688.161 695.943 685.787C697.432 683.413 698.176 679.993 698.176 675.527ZM726.956 697.495C721.685 697.495 717.541 695.503 714.524 691.52C711.547 687.457 710.058 682.126 710.058 675.527C710.058 668.929 711.547 663.618 714.524 659.595C717.541 655.572 721.685 653.56 726.956 653.56C732.307 653.56 736.451 655.572 739.388 659.595C742.365 663.618 743.854 668.929 743.854 675.527C743.854 682.126 742.365 687.457 739.388 691.52C736.451 695.503 732.307 697.495 726.956 697.495ZM735.586 675.527C735.586 671.021 734.842 667.581 733.353 665.208C731.905 662.834 729.772 661.647 726.956 661.647C724.14 661.647 722.007 662.834 720.559 665.208C719.11 667.581 718.386 671.021 718.386 675.527C718.386 680.034 719.11 683.473 720.559 685.847C722.007 688.181 724.14 689.348 726.956 689.348C729.772 689.348 731.905 688.161 733.353 685.787C734.842 683.413 735.586 679.993 735.586 675.527ZM764.366 697.495C759.095 697.495 754.951 695.503 751.934 691.52C748.957 687.457 747.468 682.126 747.468 675.527C747.468 668.929 748.957 663.618 751.934 659.595C754.951 655.572 759.095 653.56 764.366 653.56C769.717 653.56 773.861 655.572 776.798 659.595C779.775 663.618 781.264 668.929 781.264 675.527C781.264 682.126 779.775 687.457 776.798 691.52C773.861 695.503 769.717 697.495 764.366 697.495ZM772.996 675.527C772.996 671.021 772.252 667.581 770.763 665.208C769.315 662.834 767.182 661.647 764.366 661.647C761.55 661.647 759.417 662.834 757.969 665.208C756.52 667.581 755.796 671.021 755.796 675.527C755.796 680.034 756.52 683.473 757.969 685.847C759.417 688.181 761.55 689.348 764.366 689.348C767.182 689.348 769.315 688.161 770.763 685.787C772.252 683.413 772.996 679.993 772.996 675.527ZM801.776 697.495C796.505 697.495 792.361 695.503 789.344 691.52C786.366 687.457 784.878 682.126 784.878 675.527C784.878 668.929 786.366 663.618 789.344 659.595C792.361 655.572 796.505 653.56 801.776 653.56C807.127 653.56 811.271 655.572 814.208 659.595C817.185 663.618 818.674 668.929 818.674 675.527C818.674 682.126 817.185 687.457 814.208 691.52C811.271 695.503 807.127 697.495 801.776 697.495ZM810.406 675.527C810.406 671.021 809.662 667.581 808.173 665.208C806.725 662.834 804.592 661.647 801.776 661.647C798.959 661.647 796.827 662.834 795.379 665.208C793.93 667.581 793.206 671.021 793.206 675.527C793.206 680.034 793.93 683.473 795.379 685.847C796.827 688.181 798.959 689.348 801.776 689.348C804.592 689.348 806.725 688.161 808.173 685.787C809.662 683.413 810.406 679.993 810.406 675.527Z" fill="white"/>
    <path d="M185.619 189.283L195.968 185.627H202.718V225H194.956V193.839L187.531 195.92L185.619 189.283ZM216.201 204.864C216.201 206.064 217.907 207.095 221.32 207.957C222.52 208.22 223.607 208.538 224.582 208.913C225.557 209.251 226.532 209.757 227.507 210.432C228.519 211.07 229.307 211.932 229.869 213.019C230.432 214.107 230.713 215.363 230.713 216.788C230.713 219.675 229.625 221.906 227.45 223.481C225.276 225.019 222.595 225.787 219.407 225.787C213.633 225.787 209.695 223.556 207.595 219.094L213.895 215.551C214.757 217.988 216.595 219.207 219.407 219.207C221.995 219.207 223.288 218.4 223.288 216.788C223.288 215.588 221.582 214.557 218.17 213.694C216.895 213.357 215.807 213.019 214.907 212.682C214.008 212.344 213.033 211.857 211.983 211.22C210.933 210.545 210.126 209.701 209.564 208.688C209.039 207.639 208.777 206.42 208.777 205.032C208.777 202.258 209.789 200.083 211.814 198.508C213.876 196.895 216.426 196.089 219.463 196.089C221.751 196.089 223.832 196.614 225.707 197.664C227.582 198.677 229.063 200.139 230.15 202.051L223.963 205.426C223.063 203.514 221.563 202.558 219.463 202.558C218.526 202.558 217.739 202.783 217.101 203.233C216.501 203.645 216.201 204.189 216.201 204.864ZM250.079 196.877V203.851H243.723V215.551C243.723 216.525 243.967 217.238 244.455 217.688C244.942 218.138 245.655 218.4 246.592 218.475C247.529 218.513 248.692 218.494 250.079 218.419V225C245.167 225.562 241.661 225.112 239.561 223.65C237.499 222.15 236.468 219.45 236.468 215.551V203.851H231.574V196.877H236.468V191.196L243.723 189.002V196.877H250.079Z" fill="#0D0C10"/>
    <path d="M747.291 437H656.546V453.067H625.5V476.896C625.5 494.015 639.427 507.942 656.546 507.942H657.09C659.955 526.548 674.136 541.382 692.343 545.299V571.013H681.209C677.763 571.013 675.007 573.806 675.007 577.215V585.376H665.504V614.5H738.369V585.376H728.866V577.215C728.866 573.77 726.073 571.013 722.664 571.013H711.53V545.299C729.773 541.382 743.918 526.511 746.783 507.942H747.327C764.446 507.942 778.373 494.015 778.373 476.896V453.067H747.327V437H747.291ZM656.546 492.237C648.095 492.237 641.204 485.346 641.204 476.896V468.771H656.546V492.237ZM762.596 468.771V476.896C762.596 485.346 755.741 492.237 747.291 492.237V468.771H762.596Z" fill="white"/>
    <path d="M687.157 508.2H668.242V504.037L677.901 494.095C680.057 491.804 681.134 489.918 681.134 488.436C681.134 487.332 680.784 486.442 680.084 485.769C679.41 485.095 678.534 484.758 677.457 484.758C675.301 484.758 673.725 485.863 672.728 488.073L668.04 485.324C668.902 483.411 670.155 481.943 671.798 480.919C673.469 479.868 675.328 479.343 677.376 479.343C679.935 479.343 682.131 480.151 683.964 481.768C685.796 483.357 686.712 485.513 686.712 488.234C686.712 491.171 685.163 494.189 682.064 497.288L676.527 502.825H687.157V508.2ZM701.838 487.426C704.074 487.426 705.893 488.167 707.294 489.649C708.749 491.158 709.477 493.205 709.477 495.792V508.2H704.263V496.439C704.263 495.118 703.899 494.095 703.172 493.367C702.471 492.64 701.501 492.276 700.262 492.276C698.887 492.276 697.796 492.707 696.988 493.569C696.206 494.404 695.816 495.644 695.816 497.288V508.2H690.602V487.992H695.816V490.255C697.055 488.369 699.063 487.426 701.838 487.426ZM728.842 490.376V479.908H734.056V508.2H728.842V505.815C727.306 507.782 725.124 508.766 722.295 508.766C719.573 508.766 717.243 507.742 715.303 505.694C713.389 503.619 712.433 501.087 712.433 498.096C712.433 495.132 713.389 492.613 715.303 490.538C717.243 488.463 719.573 487.426 722.295 487.426C725.124 487.426 727.306 488.409 728.842 490.376ZM719.223 502.218C720.328 503.269 721.675 503.795 723.265 503.795C724.881 503.795 726.215 503.269 727.266 502.218C728.317 501.141 728.842 499.766 728.842 498.096C728.842 496.425 728.317 495.065 727.266 494.014C726.215 492.936 724.881 492.397 723.265 492.397C721.648 492.397 720.301 492.936 719.223 494.014C718.172 495.065 717.647 496.425 717.647 498.096C717.647 499.766 718.172 501.141 719.223 502.218Z" fill="#0D0C10"/>
    <rect x="822.5" y="1.5" width="303" height="303" rx="15.8864" stroke="white" stroke-width="3"/>
    <path d="M893.233 244.26H887.11V246.976H898.121V251.321H887.11V256.259H880.345V251.321H876.642V246.976H880.345V244.26H876.642V238.286H880.345V221.695H893.233C896.492 221.695 899.24 222.814 901.479 225.053C903.75 227.291 904.886 229.99 904.886 233.15C904.886 236.311 903.766 238.961 901.528 241.1C899.323 243.207 896.557 244.26 893.233 244.26ZM893.233 228.065H887.11V238.286H893.233C894.615 238.286 895.767 237.792 896.689 236.804C897.644 235.817 898.121 234.599 898.121 233.15C898.121 231.702 897.644 230.501 896.689 229.546C895.767 228.558 894.615 228.065 893.233 228.065ZM932.566 256.95C928.254 256.95 924.863 255.321 922.394 252.062C919.958 248.737 918.74 244.376 918.74 238.977C918.74 233.578 919.958 229.233 922.394 225.941C924.863 222.65 928.254 221.004 932.566 221.004C936.944 221.004 940.335 222.65 942.738 225.941C945.174 229.233 946.392 233.578 946.392 238.977C946.392 244.376 945.174 248.737 942.738 252.062C940.335 255.321 936.944 256.95 932.566 256.95ZM939.627 238.977C939.627 235.29 939.018 232.476 937.8 230.533C936.615 228.591 934.87 227.62 932.566 227.62C930.262 227.62 928.517 228.591 927.332 230.533C926.147 232.476 925.554 235.29 925.554 238.977C925.554 242.664 926.147 245.478 927.332 247.421C928.517 249.33 930.262 250.284 932.566 250.284C934.87 250.284 936.615 249.313 937.8 247.371C939.018 245.429 939.627 242.631 939.627 238.977ZM963.174 256.95C958.862 256.95 955.471 255.321 953.002 252.062C950.566 248.737 949.348 244.376 949.348 238.977C949.348 233.578 950.566 229.233 953.002 225.941C955.471 222.65 958.862 221.004 963.174 221.004C967.552 221.004 970.943 222.65 973.346 225.941C975.782 229.233 977 233.578 977 238.977C977 244.376 975.782 248.737 973.346 252.062C970.943 255.321 967.552 256.95 963.174 256.95ZM970.235 238.977C970.235 235.29 969.626 232.476 968.408 230.533C967.223 228.591 965.478 227.62 963.174 227.62C960.87 227.62 959.125 228.591 957.94 230.533C956.755 232.476 956.162 235.29 956.162 238.977C956.162 242.664 956.755 245.478 957.94 247.421C959.125 249.33 960.87 250.284 963.174 250.284C965.478 250.284 967.223 249.313 968.408 247.371C969.626 245.429 970.235 242.631 970.235 238.977ZM993.782 256.95C989.47 256.95 986.079 255.321 983.61 252.062C981.174 248.737 979.957 244.376 979.957 238.977C979.957 233.578 981.174 229.233 983.61 225.941C986.079 222.65 989.47 221.004 993.782 221.004C998.16 221.004 1001.55 222.65 1003.95 225.941C1006.39 229.233 1007.61 233.578 1007.61 238.977C1007.61 244.376 1006.39 248.737 1003.95 252.062C1001.55 255.321 998.16 256.95 993.782 256.95ZM1000.84 238.977C1000.84 235.29 1000.23 232.476 999.016 230.533C997.831 228.591 996.086 227.62 993.782 227.62C991.478 227.62 989.733 228.591 988.548 230.533C987.363 232.476 986.771 235.29 986.771 238.977C986.771 242.664 987.363 245.478 988.548 247.421C989.733 249.33 991.478 250.284 993.782 250.284C996.086 250.284 997.831 249.313 999.016 247.371C1000.23 245.429 1000.84 242.631 1000.84 238.977ZM1024.39 256.95C1020.08 256.95 1016.69 255.321 1014.22 252.062C1011.78 248.737 1010.56 244.376 1010.56 238.977C1010.56 233.578 1011.78 229.233 1014.22 225.941C1016.69 222.65 1020.08 221.004 1024.39 221.004C1028.77 221.004 1032.16 222.65 1034.56 225.941C1037 229.233 1038.22 233.578 1038.22 238.977C1038.22 244.376 1037 248.737 1034.56 252.062C1032.16 255.321 1028.77 256.95 1024.39 256.95ZM1031.45 238.977C1031.45 235.29 1030.84 232.476 1029.62 230.533C1028.44 228.591 1026.69 227.62 1024.39 227.62C1022.09 227.62 1020.34 228.591 1019.16 230.533C1017.97 232.476 1017.38 235.29 1017.38 238.977C1017.38 242.664 1017.97 245.478 1019.16 247.421C1020.34 249.33 1022.09 250.284 1024.39 250.284C1026.69 250.284 1028.44 249.313 1029.62 247.371C1030.84 245.429 1031.45 242.631 1031.45 238.977ZM1055 256.95C1050.69 256.95 1047.3 255.321 1044.83 252.062C1042.39 248.737 1041.17 244.376 1041.17 238.977C1041.17 233.578 1042.39 229.233 1044.83 225.941C1047.3 222.65 1050.69 221.004 1055 221.004C1059.38 221.004 1062.77 222.65 1065.17 225.941C1067.61 229.233 1068.82 233.578 1068.82 238.977C1068.82 244.376 1067.61 248.737 1065.17 252.062C1062.77 255.321 1059.38 256.95 1055 256.95ZM1062.06 238.977C1062.06 235.29 1061.45 232.476 1060.23 230.533C1059.05 228.591 1057.3 227.62 1055 227.62C1052.69 227.62 1050.95 228.591 1049.76 230.533C1048.58 232.476 1047.99 235.29 1047.99 238.977C1047.99 242.664 1048.58 245.478 1049.76 247.421C1050.95 249.33 1052.69 250.284 1055 250.284C1057.3 250.284 1059.05 249.313 1060.23 247.371C1061.45 245.429 1062.06 242.631 1062.06 238.977Z" fill="white"/>
    <path d="M1010.42 44H936.174V57.1458H910.772V76.6419C910.772 90.6483 922.167 102.043 936.174 102.043H936.619C938.963 117.266 950.566 129.403 965.463 132.608V153.647H956.352C953.533 153.647 951.278 155.932 951.278 158.722V165.398H943.503V189.227H1003.12V165.398H995.345V158.722C995.345 155.902 993.06 153.647 990.27 153.647H981.16V132.608C996.087 129.403 1007.66 117.237 1010 102.043H1010.45C1024.46 102.043 1035.85 90.6483 1035.85 76.6419V57.1458H1010.45V44H1010.42ZM936.174 89.1942C929.26 89.1942 923.622 83.5561 923.622 76.6419V69.9948H936.174V89.1942ZM1022.94 69.9948V76.6419C1022.94 83.5561 1017.33 89.1942 1010.42 89.1942V69.9948H1022.94Z" fill="white"/>
    <path d="M969.368 83.2403L965.036 88.8619C966.646 89.3248 967.924 90.1405 968.872 91.3089C969.842 92.4773 970.327 93.8662 970.327 95.4755C970.327 97.8564 969.523 99.7192 967.913 101.064C966.348 102.409 964.397 103.081 962.06 103.081C960.23 103.081 958.61 102.662 957.199 101.825C955.788 100.965 954.763 99.7523 954.124 98.187L958.026 95.9384C958.577 97.7241 959.922 98.6169 962.06 98.6169C963.229 98.6169 964.132 98.3414 964.772 97.7902C965.433 97.2171 965.764 96.4455 965.764 95.4755C965.764 94.5275 965.433 93.767 964.772 93.1938C964.132 92.6206 963.229 92.334 962.06 92.334H961.068L959.316 89.6886L963.879 83.7363H954.818V79.4705H969.368V83.2403ZM985.536 88.0352V79.4705H989.802V102.618H985.536V100.667C984.279 102.276 982.494 103.081 980.179 103.081C977.952 103.081 976.045 102.243 974.458 100.568C972.893 98.8705 972.11 96.7982 972.11 94.3512C972.11 91.9262 972.893 89.8649 974.458 88.1674C976.045 86.4699 977.952 85.6212 980.179 85.6212C982.494 85.6212 984.279 86.4259 985.536 88.0352ZM977.666 97.7241C978.57 98.5839 979.672 99.0137 980.973 99.0137C982.295 99.0137 983.386 98.5839 984.246 97.7241C985.106 96.8423 985.536 95.718 985.536 94.3512C985.536 92.9843 985.106 91.8711 984.246 91.0113C983.386 90.1295 982.295 89.6886 980.973 89.6886C979.65 89.6886 978.548 90.1295 977.666 91.0113C976.806 91.8711 976.376 92.9843 976.376 94.3512C976.376 95.718 976.806 96.8423 977.666 97.7241Z" fill="#0D0C10"/>
    <rect x="1170.5" y="382.5" width="216" height="216" rx="10.9432" stroke="white" stroke-width="3"/>
    <path d="M1223.29 518.349C1223.29 519.103 1224.36 519.751 1226.51 520.292C1227.26 520.457 1227.94 520.658 1228.56 520.893C1229.17 521.105 1229.78 521.423 1230.39 521.847C1231.03 522.248 1231.52 522.79 1231.88 523.473C1232.23 524.156 1232.41 524.945 1232.41 525.841C1232.41 527.655 1231.72 529.056 1230.36 530.046C1228.99 531.012 1227.31 531.495 1225.3 531.495C1221.68 531.495 1219.2 530.093 1217.88 527.289L1221.84 525.063C1222.38 526.594 1223.54 527.36 1225.3 527.36C1226.93 527.36 1227.74 526.854 1227.74 525.841C1227.74 525.087 1226.67 524.439 1224.53 523.897C1223.73 523.685 1223.04 523.473 1222.48 523.261C1221.91 523.049 1221.3 522.743 1220.64 522.342C1219.98 521.918 1219.47 521.388 1219.12 520.752C1218.79 520.092 1218.63 519.326 1218.63 518.455C1218.63 516.711 1219.26 515.345 1220.53 514.356C1221.83 513.342 1223.43 512.836 1225.34 512.836C1226.78 512.836 1228.08 513.166 1229.26 513.825C1230.44 514.462 1231.37 515.38 1232.05 516.582L1228.17 518.702C1227.6 517.501 1226.66 516.9 1225.34 516.9C1224.75 516.9 1224.26 517.041 1223.86 517.324C1223.48 517.583 1223.29 517.925 1223.29 518.349ZM1244.58 513.331V517.713H1240.58V525.063C1240.58 525.676 1240.74 526.123 1241.04 526.406C1241.35 526.689 1241.8 526.854 1242.38 526.901C1242.97 526.924 1243.7 526.912 1244.58 526.865V531C1241.49 531.353 1239.29 531.071 1237.97 530.152C1236.67 529.21 1236.02 527.513 1236.02 525.063V517.713H1232.95V513.331H1236.02V509.761L1240.58 508.383V513.331H1244.58ZM1257.26 512.836C1259.22 512.836 1260.81 513.484 1262.03 514.78C1263.3 516.099 1263.94 517.889 1263.94 520.151V531H1259.38V520.716C1259.38 519.562 1259.06 518.667 1258.43 518.031C1257.81 517.395 1256.97 517.077 1255.88 517.077C1254.68 517.077 1253.73 517.454 1253.02 518.207C1252.34 518.938 1251.99 520.021 1251.99 521.459V531H1247.44V506.263H1251.99V515.31C1253.08 513.661 1254.83 512.836 1257.26 512.836ZM1293.13 524.038H1279.81C1280.4 526.253 1282.06 527.36 1284.79 527.36C1286.54 527.36 1287.86 526.771 1288.75 525.593L1292.43 527.714C1290.68 530.234 1288.12 531.495 1284.72 531.495C1281.8 531.495 1279.46 530.611 1277.69 528.844C1275.92 527.077 1275.04 524.851 1275.04 522.165C1275.04 519.527 1275.91 517.312 1277.66 515.522C1279.38 513.731 1281.61 512.836 1284.37 512.836C1286.99 512.836 1289.12 513.731 1290.77 515.522C1292.46 517.312 1293.31 519.527 1293.31 522.165C1293.31 522.66 1293.25 523.284 1293.13 524.038ZM1279.74 520.504H1288.75C1288.49 519.35 1287.96 518.467 1287.16 517.854C1286.38 517.241 1285.45 516.935 1284.37 516.935C1283.14 516.935 1282.13 517.253 1281.33 517.889C1280.53 518.502 1280 519.374 1279.74 520.504ZM1300.7 531H1296.14V505.203H1300.7V531ZM1308.58 518.349C1308.58 519.103 1309.66 519.751 1311.8 520.292C1312.55 520.457 1313.24 520.658 1313.85 520.893C1314.46 521.105 1315.08 521.423 1315.69 521.847C1316.32 522.248 1316.82 522.79 1317.17 523.473C1317.53 524.156 1317.7 524.945 1317.7 525.841C1317.7 527.655 1317.02 529.056 1315.65 530.046C1314.29 531.012 1312.6 531.495 1310.6 531.495C1306.97 531.495 1304.5 530.093 1303.18 527.289L1307.14 525.063C1307.68 526.594 1308.83 527.36 1310.6 527.36C1312.22 527.36 1313.04 526.854 1313.04 525.841C1313.04 525.087 1311.97 524.439 1309.82 523.897C1309.02 523.685 1308.34 523.473 1307.77 523.261C1307.21 523.049 1306.59 522.743 1305.93 522.342C1305.27 521.918 1304.77 521.388 1304.41 520.752C1304.08 520.092 1303.92 519.326 1303.92 518.455C1303.92 516.711 1304.56 515.345 1305.83 514.356C1307.12 513.342 1308.73 512.836 1310.63 512.836C1312.07 512.836 1313.38 513.166 1314.56 513.825C1315.73 514.462 1316.67 515.38 1317.35 516.582L1313.46 518.702C1312.9 517.501 1311.95 516.9 1310.63 516.9C1310.05 516.9 1309.55 517.041 1309.15 517.324C1308.77 517.583 1308.58 517.925 1308.58 518.349ZM1337.21 524.038H1323.89C1324.48 526.253 1326.14 527.36 1328.87 527.36C1330.62 527.36 1331.94 526.771 1332.83 525.593L1336.51 527.714C1334.76 530.234 1332.2 531.495 1328.8 531.495C1325.88 531.495 1323.54 530.611 1321.77 528.844C1320 527.077 1319.12 524.851 1319.12 522.165C1319.12 519.527 1319.99 517.312 1321.74 515.522C1323.45 513.731 1325.69 512.836 1328.45 512.836C1331.06 512.836 1333.2 513.731 1334.85 515.522C1336.54 517.312 1337.39 519.527 1337.39 522.165C1337.39 522.66 1337.33 523.284 1337.21 524.038ZM1323.82 520.504H1332.83C1332.57 519.35 1332.04 518.467 1331.24 517.854C1330.46 517.241 1329.53 516.935 1328.45 516.935C1327.22 516.935 1326.21 517.253 1325.41 517.889C1324.61 518.502 1324.08 519.374 1323.82 520.504Z" fill="white"/>
    <path d="M1240.21 468.35H1242.53V472.314H1240.21V476H1235.9V472.314H1225.65V468.35L1232.87 454.32H1237.45L1230.27 468.35H1235.9V463.209H1240.21V468.35ZM1245.41 471.726H1249.75L1247.43 480.336H1244.17L1245.41 471.726ZM1264.84 462.218H1267.07C1269.18 462.218 1270.93 462.848 1272.34 464.107C1273.76 465.346 1274.47 467.08 1274.47 469.31C1274.47 471.54 1273.72 473.285 1272.21 474.544C1270.75 475.804 1268.92 476.434 1266.73 476.434C1264.95 476.434 1263.4 476.041 1262.05 475.257C1260.73 474.451 1259.77 473.295 1259.17 471.788L1262.83 469.651C1263.34 471.385 1264.64 472.253 1266.73 472.253C1267.82 472.253 1268.67 471.994 1269.27 471.478C1269.89 470.941 1270.2 470.219 1270.2 469.31C1270.2 468.422 1269.9 467.71 1269.3 467.173C1268.7 466.637 1267.89 466.368 1266.85 466.368H1260.29L1261.16 454.32H1273.45V458.316H1265.12L1264.84 462.218ZM1277.21 471.726H1281.54L1279.22 480.336H1275.97L1277.21 471.726ZM1303.82 454.32L1299.02 461.351C1301.27 461.413 1303.1 462.146 1304.5 463.55C1305.91 464.954 1306.61 466.729 1306.61 468.877C1306.61 471.086 1305.88 472.903 1304.41 474.328C1302.94 475.732 1301.06 476.434 1298.74 476.434C1296.43 476.434 1294.54 475.732 1293.07 474.328C1291.63 472.944 1290.91 471.127 1290.91 468.877C1290.91 467.246 1291.33 465.79 1292.18 464.51L1298.93 454.32H1303.82ZM1302.37 468.877C1302.37 467.844 1302.03 467.008 1301.34 466.368C1300.66 465.707 1299.8 465.377 1298.74 465.377C1297.69 465.377 1296.82 465.697 1296.14 466.337C1295.48 466.977 1295.15 467.824 1295.15 468.877C1295.15 469.93 1295.48 470.787 1296.14 471.447C1296.82 472.087 1297.69 472.407 1298.74 472.407C1299.8 472.407 1300.66 472.087 1301.34 471.447C1302.03 470.787 1302.37 469.93 1302.37 468.877ZM1313.18 473.77C1313.18 474.493 1312.92 475.112 1312.41 475.628C1311.89 476.145 1311.27 476.403 1310.55 476.403C1309.83 476.403 1309.21 476.145 1308.69 475.628C1308.17 475.112 1307.92 474.493 1307.92 473.77C1307.92 473.047 1308.17 472.428 1308.69 471.912C1309.21 471.396 1309.83 471.138 1310.55 471.138C1311.27 471.138 1311.89 471.396 1312.41 471.912C1312.92 472.428 1313.18 473.047 1313.18 473.77ZM1321.16 473.77C1321.16 474.493 1320.9 475.112 1320.38 475.628C1319.87 476.145 1319.25 476.403 1318.53 476.403C1317.8 476.403 1317.18 476.145 1316.67 475.628C1316.15 475.112 1315.89 474.493 1315.89 473.77C1315.89 473.047 1316.15 472.428 1316.67 471.912C1317.18 471.396 1317.8 471.138 1318.53 471.138C1319.25 471.138 1319.87 471.396 1320.38 471.912C1320.9 472.428 1321.16 473.047 1321.16 473.77ZM1329.14 473.77C1329.14 474.493 1328.88 475.112 1328.36 475.628C1327.85 476.145 1327.23 476.403 1326.5 476.403C1325.78 476.403 1325.16 476.145 1324.65 475.628C1324.13 475.112 1323.87 474.493 1323.87 473.77C1323.87 473.047 1324.13 472.428 1324.65 471.912C1325.16 471.396 1325.78 471.138 1326.5 471.138C1327.23 471.138 1327.85 471.396 1328.36 471.912C1328.88 472.428 1329.14 473.047 1329.14 473.77Z" fill="white"/>
</svg>
