<svg width="61" height="49" viewBox="0 0 61 49" fill="none" xmlns="http://www.w3.org/2000/svg">
  <path d="M1.63318 45.006C0.80803 44.9324 0.0794803 45.5417 0.00592443 46.3669C-0.0676315 47.192 0.54166 47.9206 1.36682 47.9941L1.63318 45.006ZM50.0607 0.93934C49.4749 0.353553 48.5251 0.353553 47.9393 0.93934L38.3934 10.4853C37.8076 11.0711 37.8076 12.0208 38.3934 12.6066C38.9792 13.1924 39.9289 13.1924 40.5147 12.6066L49 4.12132L57.4853 12.6066C58.0711 13.1924 59.0208 13.1924 59.6066 12.6066C60.1924 12.0208 60.1924 11.0711 59.6066 10.4853L50.0607 0.93934ZM1.5 46.5001C1.36682 47.9941 1.36732 47.9942 1.36794 47.9942C1.36829 47.9943 1.36903 47.9943 1.36974 47.9944C1.37117 47.9945 1.37306 47.9947 1.37539 47.9949C1.38006 47.9953 1.38654 47.9959 1.39479 47.9966C1.4113 47.998 1.43493 47.9999 1.4655 48.0024C1.52662 48.0073 1.61549 48.0142 1.73059 48.0224C1.96076 48.0388 2.29595 48.0606 2.72402 48.0827C3.57995 48.1268 4.80846 48.1723 6.31239 48.1786C9.31672 48.1911 13.4378 48.0477 17.8925 47.4198C26.6896 46.1798 37.2744 42.9839 42.7453 34.8362L40.2547 33.1638C35.5473 40.1745 26.1321 43.2287 17.4738 44.4491C13.2007 45.0514 9.23027 45.1908 6.32495 45.1786C4.87407 45.1725 3.69324 45.1287 2.87854 45.0867C2.4713 45.0657 2.15584 45.0451 1.9442 45.03C1.83839 45.0225 1.75857 45.0163 1.70622 45.0121C1.68005 45.01 1.66075 45.0083 1.64851 45.0073C1.6424 45.0068 1.63804 45.0064 1.63548 45.0062C1.6342 45.0061 1.63337 45.006 1.63298 45.006C1.63279 45.006 1.63284 45.006 1.63274 45.0059C1.63291 45.006 1.63318 45.006 1.5 46.5001ZM42.7453 34.8362C53.2417 19.204 50.5 4.2728 50.5 2H47.5C47.5 4.7272 50.1149 18.4791 40.2547 33.1638L42.7453 34.8362Z" fill="white"/>
</svg>
