<svg width="82" height="12" viewBox="0 0 82 12" fill="none" xmlns="http://www.w3.org/2000/svg">
  <path d="M2.136 4.704C2.136 4.864 2.24 4.996 2.448 5.1C2.664 5.196 2.924 5.284 3.228 5.364C3.532 5.436 3.836 5.532 4.14 5.652C4.444 5.764 4.7 5.956 4.908 6.228C5.124 6.5 5.232 6.84 5.232 7.248C5.232 7.864 5 8.34 4.536 8.676C4.08 9.004 3.508 9.168 2.82 9.168C1.588 9.168 0.748 8.692 0.3 7.74L1.644 6.984C1.82 7.504 2.212 7.764 2.82 7.764C3.372 7.764 3.648 7.592 3.648 7.248C3.648 7.088 3.54 6.96 3.324 6.864C3.116 6.76 2.86 6.668 2.556 6.588C2.252 6.508 1.948 6.408 1.644 6.288C1.34 6.168 1.08 5.98 0.864 5.724C0.656 5.46 0.552 5.132 0.552 4.74C0.552 4.148 0.768 3.684 1.2 3.348C1.64 3.004 2.184 2.832 2.832 2.832C3.32 2.832 3.764 2.944 4.164 3.168C4.564 3.384 4.88 3.696 5.112 4.104L3.792 4.824C3.6 4.416 3.28 4.212 2.832 4.212C2.632 4.212 2.464 4.256 2.328 4.344C2.2 4.432 2.136 4.552 2.136 4.704ZM11.1375 8.256C10.5215 8.864 9.7695 9.168 8.8815 9.168C7.9935 9.168 7.2415 8.864 6.6255 8.256C6.0175 7.64 5.7135 6.888 5.7135 6C5.7135 5.112 6.0175 4.364 6.6255 3.756C7.2415 3.14 7.9935 2.832 8.8815 2.832C9.7695 2.832 10.5215 3.14 11.1375 3.756C11.7535 4.364 12.0615 5.112 12.0615 6C12.0615 6.888 11.7535 7.64 11.1375 8.256ZM7.7175 7.188C8.0295 7.5 8.4175 7.656 8.8815 7.656C9.3455 7.656 9.7335 7.5 10.0455 7.188C10.3575 6.876 10.5135 6.48 10.5135 6C10.5135 5.52 10.3575 5.124 10.0455 4.812C9.7335 4.5 9.3455 4.344 8.8815 4.344C8.4175 4.344 8.0295 4.5 7.7175 4.812C7.4135 5.124 7.2615 5.52 7.2615 6C7.2615 6.48 7.4135 6.876 7.7175 7.188ZM19.6665 2.832C20.3545 2.832 20.9025 3.056 21.3105 3.504C21.7265 3.952 21.9345 4.552 21.9345 5.304V9H20.3865V5.412C20.3865 5.052 20.2985 4.772 20.1225 4.572C19.9465 4.372 19.6985 4.272 19.3785 4.272C19.0265 4.272 18.7505 4.388 18.5505 4.62C18.3585 4.852 18.2625 5.188 18.2625 5.628V9H16.7145V5.412C16.7145 5.052 16.6265 4.772 16.4505 4.572C16.2745 4.372 16.0265 4.272 15.7065 4.272C15.3625 4.272 15.0865 4.388 14.8785 4.62C14.6785 4.852 14.5785 5.188 14.5785 5.628V9H13.0305V3H14.5785V3.636C14.9385 3.1 15.4945 2.832 16.2465 2.832C16.9825 2.832 17.5265 3.12 17.8785 3.696C18.2785 3.12 18.8745 2.832 19.6665 2.832ZM24.4372 6.636C24.6452 7.388 25.2092 7.764 26.1292 7.764C26.7212 7.764 27.1692 7.564 27.4732 7.164L28.7212 7.884C28.1292 8.74 27.2572 9.168 26.1052 9.168C25.1132 9.168 24.3172 8.868 23.7172 8.268C23.1172 7.668 22.8172 6.912 22.8172 6C22.8172 5.096 23.1132 4.344 23.7052 3.744C24.2972 3.136 25.0572 2.832 25.9852 2.832C26.8652 2.832 27.5892 3.136 28.1572 3.744C28.7332 4.352 29.0212 5.104 29.0212 6C29.0212 6.2 29.0012 6.412 28.9612 6.636H24.4372ZM24.4132 5.436H27.4732C27.3852 5.028 27.2012 4.724 26.9212 4.524C26.6492 4.324 26.3372 4.224 25.9852 4.224C25.5692 4.224 25.2252 4.332 24.9532 4.548C24.6812 4.756 24.5012 5.052 24.4132 5.436ZM33.2381 4.488H31.8821V6.984C31.8821 7.192 31.9341 7.344 32.0381 7.44C32.1421 7.536 32.2941 7.592 32.4941 7.608C32.6941 7.616 32.9421 7.612 33.2381 7.596V9C32.1741 9.12 31.4221 9.02 30.9821 8.7C30.5501 8.38 30.3341 7.808 30.3341 6.984V4.488H29.2901V3H30.3341V1.788L31.8821 1.32V3H33.2381V4.488ZM37.5456 2.832C38.2016 2.832 38.7416 3.052 39.1656 3.492C39.5976 3.932 39.8136 4.54 39.8136 5.316V9H38.2656V5.508C38.2656 5.108 38.1576 4.804 37.9416 4.596C37.7256 4.38 37.4376 4.272 37.0776 4.272C36.6776 4.272 36.3576 4.396 36.1176 4.644C35.8776 4.892 35.7576 5.264 35.7576 5.76V9H34.2096V0.599999H35.7576V3.672C36.1336 3.112 36.7296 2.832 37.5456 2.832ZM41.7833 2.28C41.5273 2.28 41.3033 2.188 41.1113 2.004C40.9273 1.812 40.8353 1.588 40.8353 1.332C40.8353 1.076 40.9273 0.852 41.1113 0.659999C41.3033 0.467999 41.5273 0.372 41.7833 0.372C42.0473 0.372 42.2713 0.467999 42.4553 0.659999C42.6473 0.852 42.7433 1.076 42.7433 1.332C42.7433 1.588 42.6473 1.812 42.4553 2.004C42.2713 2.188 42.0473 2.28 41.7833 2.28ZM41.0153 9V3H42.5633V9H41.0153ZM47.1962 2.832C47.8522 2.832 48.3922 3.052 48.8162 3.492C49.2482 3.932 49.4642 4.54 49.4642 5.316V9H47.9162V5.508C47.9162 5.108 47.8082 4.804 47.5922 4.596C47.3762 4.38 47.0882 4.272 46.7282 4.272C46.3282 4.272 46.0082 4.396 45.7682 4.644C45.5282 4.892 45.4082 5.264 45.4082 5.76V9H43.8602V3H45.4082V3.672C45.7842 3.112 46.3802 2.832 47.1962 2.832ZM55.262 3H56.774V8.712C56.774 9.64 56.466 10.348 55.85 10.836C55.242 11.324 54.506 11.568 53.642 11.568C52.994 11.568 52.422 11.444 51.926 11.196C51.438 10.948 51.062 10.584 50.798 10.104L52.118 9.348C52.422 9.908 52.946 10.188 53.69 10.188C54.178 10.188 54.562 10.06 54.842 9.804C55.122 9.548 55.262 9.184 55.262 8.712V8.064C54.806 8.672 54.166 8.976 53.342 8.976C52.494 8.976 51.782 8.68 51.206 8.088C50.638 7.488 50.354 6.76 50.354 5.904C50.354 5.056 50.642 4.332 51.218 3.732C51.794 3.132 52.502 2.832 53.342 2.832C54.166 2.832 54.806 3.136 55.262 3.744V3ZM52.37 7.092C52.69 7.396 53.094 7.548 53.582 7.548C54.07 7.548 54.47 7.396 54.782 7.092C55.102 6.78 55.262 6.384 55.262 5.904C55.262 5.432 55.102 5.044 54.782 4.74C54.47 4.428 54.07 4.272 53.582 4.272C53.094 4.272 52.69 4.428 52.37 4.74C52.058 5.044 51.902 5.432 51.902 5.904C51.902 6.384 52.058 6.78 52.37 7.092ZM62.2457 6.636C62.4537 7.388 63.0177 7.764 63.9377 7.764C64.5297 7.764 64.9777 7.564 65.2817 7.164L66.5297 7.884C65.9377 8.74 65.0657 9.168 63.9137 9.168C62.9217 9.168 62.1257 8.868 61.5257 8.268C60.9257 7.668 60.6257 6.912 60.6257 6C60.6257 5.096 60.9217 4.344 61.5137 3.744C62.1057 3.136 62.8657 2.832 63.7937 2.832C64.6737 2.832 65.3977 3.136 65.9657 3.744C66.5417 4.352 66.8297 5.104 66.8297 6C66.8297 6.2 66.8097 6.412 66.7697 6.636H62.2457ZM62.2217 5.436H65.2817C65.1937 5.028 65.0097 4.724 64.7297 4.524C64.4577 4.324 64.1457 4.224 63.7937 4.224C63.3777 4.224 63.0337 4.332 62.7617 4.548C62.4897 4.756 62.3097 5.052 62.2217 5.436ZM67.7903 9V0.24H69.3383V9H67.7903ZM72.0163 4.704C72.0163 4.864 72.1203 4.996 72.3283 5.1C72.5443 5.196 72.8043 5.284 73.1083 5.364C73.4123 5.436 73.7163 5.532 74.0203 5.652C74.3243 5.764 74.5803 5.956 74.7883 6.228C75.0043 6.5 75.1123 6.84 75.1123 7.248C75.1123 7.864 74.8803 8.34 74.4163 8.676C73.9603 9.004 73.3883 9.168 72.7003 9.168C71.4683 9.168 70.6283 8.692 70.1803 7.74L71.5243 6.984C71.7003 7.504 72.0923 7.764 72.7003 7.764C73.2523 7.764 73.5283 7.592 73.5283 7.248C73.5283 7.088 73.4203 6.96 73.2043 6.864C72.9963 6.76 72.7403 6.668 72.4363 6.588C72.1323 6.508 71.8283 6.408 71.5243 6.288C71.2203 6.168 70.9603 5.98 70.7443 5.724C70.5363 5.46 70.4323 5.132 70.4323 4.74C70.4323 4.148 70.6483 3.684 71.0803 3.348C71.5203 3.004 72.0643 2.832 72.7123 2.832C73.2003 2.832 73.6443 2.944 74.0443 3.168C74.4443 3.384 74.7603 3.696 74.9923 4.104L73.6723 4.824C73.4803 4.416 73.1603 4.212 72.7123 4.212C72.5123 4.212 72.3443 4.256 72.2083 4.344C72.0803 4.432 72.0163 4.552 72.0163 4.704ZM77.2138 6.636C77.4218 7.388 77.9858 7.764 78.9058 7.764C79.4978 7.764 79.9458 7.564 80.2498 7.164L81.4978 7.884C80.9058 8.74 80.0338 9.168 78.8818 9.168C77.8898 9.168 77.0938 8.868 76.4938 8.268C75.8938 7.668 75.5938 6.912 75.5938 6C75.5938 5.096 75.8898 4.344 76.4818 3.744C77.0738 3.136 77.8338 2.832 78.7618 2.832C79.6418 2.832 80.3658 3.136 80.9338 3.744C81.5098 4.352 81.7978 5.104 81.7978 6C81.7978 6.2 81.7778 6.412 81.7378 6.636H77.2138ZM77.1898 5.436H80.2498C80.1618 5.028 79.9778 4.724 79.6978 4.524C79.4258 4.324 79.1138 4.224 78.7618 4.224C78.3458 4.224 78.0018 4.332 77.7298 4.548C77.4578 4.756 77.2778 5.052 77.1898 5.436Z" fill="#8F00CC"/>
</svg>
